<svg xmlns="http://www.w3.org/2000/svg" width="24" height="24" fill="none" viewBox="0 0 24 24">
  <path fill="#000" d="m23.832 13.36-5.664-3.243V3.673A.333.333 0 0 0 18 3.385L12.168.045a.336.336 0 0 0-.336 0L6 3.385a.333.333 0 0 0-.168.288v6.444L.168 13.36a.333.333 0 0 0-.168.288v6.68c0 .118.064.228.168.288L6 23.956c.104.06.231.06.335 0L12 20.712l5.665 3.244c.104.06.231.06.335 0l5.832-3.34a.333.333 0 0 0 .168-.288v-6.68a.333.333 0 0 0-.168-.288Zm-6 3.243-1.425-.815 5.16-2.955 1.425.816-5.16 2.954Zm-11.7-5.887 1.425.815-5.124 2.934-1.425-.816 5.124-2.933Zm1.797-5.65v3.45a.338.338 0 0 0 .505.288l.503-.288.651 1.12a.337.337 0 0 0 .627-.166l.02-3.082 1.43.818v5.865l-5.16-2.954V4.251l1.424.815Zm7.136-2.593L9.903 5.427l-.967-.553 5.161-2.954.968.553Zm2.096 1.2-5.16 2.954-1.426-.815 5.16-2.955 1.426.816ZM3.105 14.85l5.122-2.933.968.553-5.123 2.932-.967-.552Zm14.39-4.733-5.16 2.954V7.206l5.16-2.954v5.866Zm-7.93-4.113L9.55 8.237l-.2-.344a.338.338 0 0 0-.459-.122l-.29.166V5.452l.966.552Zm-5.831 9.975-.016 2.233-.2-.344a.336.336 0 0 0-.204-.155.334.334 0 0 0-.255.033l-.29.167v-2.487l.965.553Zm6.132-3.124 1.425.815-5.124 2.934-1.425-.816 5.124-2.933ZM6.504 17.18l5.16-2.954v5.91l-5.16 2.954v-5.91Zm11.363-6.464 1.387.795-5.157 2.954-1.387-.795 5.157-2.954Zm3.025 1.732-5.157 2.954-.967-.552 5.16-2.954.964.552Zm-5.494 3.531-.015 2.234-.201-.345a.335.335 0 0 0-.205-.155.334.334 0 0 0-.255.033l-.29.167v-2.487l.966.553ZM12 .719l1.425.816-5.16 2.954-1.425-.816L12 .72ZM.672 14.226l1.424.815v3.45a.336.336 0 0 0 .503.288l.504-.289.65 1.12a.338.338 0 0 0 .628-.166l.021-3.082 1.429.818v5.91L.672 20.136v-5.91Zm11.664 0 1.424.815v3.45a.336.336 0 0 0 .505.288l.502-.289.651 1.12a.337.337 0 0 0 .626-.166l.021-3.082 1.429.818v5.91l-5.159-2.954.001-5.91Zm5.831 8.864v-5.91l5.16-2.954v5.91l-5.16 2.954Z"/>
</svg>
