<svg xmlns="http://www.w3.org/2000/svg" width="40" height="37" fill="none" viewBox="0 0 40 37">
  <path fill="#FEAF00" stroke="#F9FFF9" stroke-width=".3" d="m20.932 8.965.096.03.006-.008a.576.576 0 0 0 .616-.422c.675-2.355 2.8-3.996 5.159-3.996.323 0 .576-.27.576-.592a.584.584 0 0 0-.576-.592c-2.972 0-5.463 2.055-6.263 4.846a.595.595 0 0 0 .386.734Z"/>
  <path fill="#FEAF00" d="M32.766 25.64h-2.553a.434.434 0 0 1-.426-.442c0-.245.191-.443.426-.443h2.553c3.52 0 6.383-2.974 6.383-6.63 0-3.657-2.864-6.632-6.383-6.632h-.061a.418.418 0 0 1-.322-.153.453.453 0 0 1-.1-.352 6.03 6.03 0 0 0 .058-.821c0-3.17-2.482-5.747-5.532-5.747a5.351 5.351 0 0 0-3.273 1.114.417.417 0 0 1-.629-.15C20.204.035 13.144-.683 9.484 3.97a8.616 8.616 0 0 0-1.662 6.993.438.438 0 0 1-.417.53h-.171c-3.52 0-6.383 2.975-6.383 6.632 0 3.656 2.864 6.63 6.383 6.63h2.553c.235 0 .426.199.426.443s-.19.442-.426.442H7.234C3.245 25.64 0 22.268 0 18.125c0-4.028 3.066-7.326 6.9-7.508A9.51 9.51 0 0 1 8.825 3.41c3.919-4.98 11.429-4.422 14.604 1.132a6.154 6.154 0 0 1 3.38-1.006c3.695 0 6.623 3.267 6.367 7.085 3.8.221 6.824 3.502 6.824 7.503 0 4.144-3.245 7.516-7.234 7.516Z"/>
  <path fill="#FEAF00" stroke="#F9FFF9" stroke-width=".3" d="M9.155 24.948c0 6.171 4.834 11.202 10.788 11.202 5.954 0 10.788-5.03 10.788-11.202s-4.834-11.202-10.788-11.202c-5.954 0-10.788 5.03-10.788 11.202Zm1.15 0c0-5.53 4.33-10.018 9.638-10.018s9.637 4.489 9.637 10.018c0 5.529-4.329 10.018-9.637 10.018-5.308 0-9.637-4.49-9.637-10.018Z"/>
  <path fill="#FEAF00" stroke="#FEAF00" stroke-width=".3" d="M19.676 29.397c0 .256.201.474.462.474.26 0 .461-.217.461-.474v-8.415a.468.468 0 0 0-.462-.474.468.468 0 0 0-.461.474v8.415Z"/>
  <path fill="#FEAF00" stroke="#FEAF00" stroke-width=".3" d="m20.137 21.657 2.164 2.248c.09.093.21.14.329.14l-2.492-2.388Zm0 0-2.163 2.248a.453.453 0 0 1-.657 0 .483.483 0 0 1 0-.666l2.492-2.589.108.104.22.903Z"/>
</svg>
